<svg width="24" height="24" viewBox="0 0 24 24" fill="none" xmlns="http://www.w3.org/2000/svg">
<path d="M12 22.75C6.07 22.75 1.25 17.93 1.25 12C1.25 6.07 6.07 1.25 12 1.25C17.93 1.25 22.75 6.07 22.75 12C22.75 17.93 17.93 22.75 12 22.75ZM12 2.75C6.9 2.75 2.75 6.9 2.75 12C2.75 17.1 6.9 21.25 12 21.25C17.1 21.25 21.25 17.1 21.25 12C21.25 6.9 17.1 2.75 12 2.75Z" fill="black"/>
<path d="M10.976 12.72C10.976 12.5387 11.0347 12.3893 11.152 12.272C11.28 12.144 11.4347 12.08 11.616 12.08C12.0853 12.0587 12.5067 11.9573 12.88 11.776C13.2533 11.584 13.5467 11.3173 13.76 10.976C13.984 10.624 14.096 10.208 14.096 9.728C14.096 9.28 13.9947 8.88533 13.792 8.544C13.6 8.20267 13.3333 7.936 12.992 7.744C12.6613 7.552 12.288 7.456 11.872 7.456C11.4773 7.456 11.1093 7.54133 10.768 7.712C10.4267 7.88267 10.1333 8.10667 9.888 8.384C9.77067 8.50133 9.632 8.58133 9.472 8.624C9.32267 8.66667 9.168 8.63467 9.008 8.528C8.82667 8.4 8.72533 8.25067 8.704 8.08C8.69333 7.89867 8.75733 7.73333 8.896 7.584C9.248 7.15733 9.68533 6.82133 10.208 6.576C10.7307 6.32 11.2853 6.192 11.872 6.192C12.5227 6.192 13.1147 6.34133 13.648 6.64C14.1813 6.93867 14.608 7.35467 14.928 7.888C15.248 8.41067 15.408 9.024 15.408 9.728C15.408 10.1973 15.3227 10.6293 15.152 11.024C14.992 11.4187 14.7627 11.7707 14.464 12.08C14.1653 12.3787 13.8187 12.6187 13.424 12.8C13.0293 12.9813 12.6027 13.0933 12.144 13.136C12.112 13.136 12.112 13.136 12.144 13.136C12.176 13.1253 12.208 13.1093 12.24 13.088V14.4C12.24 14.5813 12.1813 14.736 12.064 14.864C11.9467 14.992 11.7973 15.056 11.616 15.056C11.424 15.056 11.2693 14.992 11.152 14.864C11.0347 14.736 10.976 14.5813 10.976 14.4V12.72ZM11.584 18C11.36 18 11.1893 17.936 11.072 17.808C10.9547 17.6693 10.896 17.488 10.896 17.264V16.944C10.896 16.72 10.9547 16.544 11.072 16.416C11.1893 16.288 11.36 16.224 11.584 16.224H11.728C11.952 16.224 12.1227 16.288 12.24 16.416C12.3573 16.544 12.416 16.72 12.416 16.944V17.264C12.416 17.488 12.3573 17.6693 12.24 17.808C12.1227 17.936 11.952 18 11.728 18H11.584Z" fill="black"/>
</svg>
